<?xml version="1.0" encoding="UTF-8"?>
<svg id="Camada_2" data-name="Camada 2" xmlns="http://www.w3.org/2000/svg" viewBox="0 0 849.83 154.85">
  <defs>
    <style>
      .cls-1 {
        fill: #0c3656;
      }
    </style>
  </defs>
  <g id="Camada_5" data-name="Camada 5">
    <path class="cls-1" d="M594.93,42.22v35.48c-2.9-2.36-7.4-5.46-13.49-7.51-12.83-4.33-31.64-3.71-44.94,9.06-13.83,13.28-17.54,35.7-7.04,53.05,11.17,18.46,33.22,22.56,48.48,18.93,7.77-1.85,13.48-5.63,16.95-8.42.01,2.33.03,4.67.04,7,1.82.56,5.35,1.37,9.62.53,2.76-.54,4.9-1.58,6.3-2.41V41.5c-4.99-1.13-11.86-3.58-15.93.72ZM572.36,139.84c-38.94,5.24-44.18-53.94-8.19-58.93,6.28-.87,13.84,1.33,19.07,4.85,20.27,13.66,15.4,50.54-10.89,54.07Z"/>
    <path class="cls-1" d="M318.7,124.4c7.52,30.4,55.08,36.81,74.24,15.6,9.2-10.18,3.26-14.97-8.46-11.35-2.84.88-3.01,4.12-4.98,5.56-16.62,12.14-44.46,5.83-45.11-17.27,21.2-.24,42.41-.48,63.61-.72.09.03,1.57.48,2.7-.51.77-.67.89-1.57.91-1.8,3.99-67.84-100.27-59.68-82.91,10.48ZM378.5,105.29c-4.73.63-42.62-.01-44.24-1.52.78-20.44,22.71-29.46,39.64-20.07,6.67,3.7,17.31,19.92,4.61,21.6Z"/>
    <path class="cls-1" d="M234.07,84.03c-10.42-25.38,38.55-24.6,46.61-14.81,2.98,3.62,1.63,8.27,4.99,11.03,4.15,3.41,11.16,2.2,13.77-2.95,2.49-32.15-36.33-32.83-56.66-29.58-31.01,4.97-38.49,46.18-9.24,57.14,14.31,5.36,58.51-1.64,50.46,25.32-3.8,12.71-43.46,11.96-49.93,3.55-4.98-6.47,1.07-16.27-14.99-12.85-6.4,1.36-4.44,9.01-2.86,14.24,7.18,23.8,54.8,22.37,71.31,13.7,12.27-6.44,15.8-17.82,13.72-32.43-4.63-32.47-60.6-16.34-67.17-32.36Z"/>
    <path class="cls-1" d="M782.1,84.03c-10.42-25.38,38.55-24.6,46.61-14.81,2.98,3.62,1.63,8.27,4.99,11.03,4.15,3.41,11.16,2.2,13.77-2.95,2.49-32.15-36.33-32.83-56.66-29.58-31.01,4.97-38.49,46.18-9.24,57.14,14.31,5.36,58.51-1.64,50.46,25.32-3.8,12.71-43.46,11.96-49.93,3.55-4.98-6.47,1.07-16.27-14.99-12.85-6.4,1.36-4.44,9.01-2.86,14.24,7.18,23.8,54.8,22.37,71.31,13.7,12.27-6.44,15.8-17.82,13.72-32.43-4.63-32.47-60.6-16.34-67.17-32.36Z"/>
    <path class="cls-1" d="M730.9,100.68c.02,2.96.03,7.38,0,12.77-.04,6.04-.06,9.08-.21,9.76-2.65,11.62-26.33,21.55-37.83,13.7-3.65-2.5-5.79-6.59-6.04-7.08-1.63-3.2-1.96-6.08-2.13-13.38-.1-4.39-.14-9.92.06-16.35-.07-10.3-.15-20.59-.22-30.89-5.03.38-10.06.77-15.09,1.15-.05,7.98-.02,14.49.01,19.08.06,8.06.16,11.08.08,17.91-.05,4.47-.13,5.5-.08,8.5.05,2.93.35,11.3.9,14.6,1.44,8.58,9.89,14.84,11.19,15.8,13.06,9.67,29.53,5.07,34.24,3.75,6.9-1.93,12.03-5.04,15.21-7.31-.05,2.25-.11,4.51-.16,6.76,1.51.56,4.8,1.56,8.85.8,2.66-.49,4.65-1.55,5.87-2.33v-78.92c-4.88.28-9.76.56-14.64.84,0,10.28,0,20.55,0,30.83Z"/>
    <path class="cls-1" d="M443.1,138.52c-3.63.03-6.48.14-8.45-1.84-1.43-1.44-1.8-3.37-1.9-4.67V42.22c-3.11-3.42-11.37-3.42-14.48,0v94.13c-.1.9-.46,5.08,2.47,8.93,3.1,4.08,7.57,4.72,8.39,4.83h28.24c1.3-4.06,2.08-7.47-.22-11.38-6.14-.23-10.88-.24-14.04-.21Z"/>
    <path class="cls-1" d="M498.34,138.52c-3.63.03-6.48.14-8.45-1.84-1.43-1.44-1.8-3.37-1.9-4.67V42.22c-3.11-3.42-11.37-3.42-14.48,0v94.13c-.1.9-.46,5.08,2.47,8.93,3.1,4.08,7.57,4.72,8.39,4.83h28.24c1.3-4.06,2.08-7.47-.22-11.38-6.14-.23-10.88-.24-14.04-.21Z"/>
    <path class="cls-1" d="M632.59,69.01v78.92c1.84,2.74,5,2.26,7.96,2.26,1.86,0,3.73.09,5.57-.32l2.4-1.94v-76.75c-3.82-4.12-10.75-1.52-15.93-2.17Z"/>
    <circle class="cls-1" cx="42.84" cy="35.66" r="5.09"/>
    <g>
      <circle class="cls-1" cx="162.94" cy="109.7" r="5.36" transform="translate(-20.11 38.45) rotate(-12.68)"/>
      <path class="cls-1" d="M130.03,57.78c-2.96,0-5.36,2.4-5.36,5.36s2.4,5.36,5.36,5.36,5.36-2.4,5.36-5.36-2.4-5.36-5.36-5.36Z"/>
      <path class="cls-1" d="M75.31,22.84c-2.96,0-5.36,2.4-5.36,5.36s2.4,5.36,5.36,5.36,5.36-2.4,5.36-5.36-2.4-5.36-5.36-5.36Z"/>
    </g>
    <path class="cls-1" d="M0,27.45c7.5,6.35,19.25,24.78,30.33,21.23,2.97-.95,5.14-5.37,7.52-5.36l9.68,6.11c1.69,13.5,2.41,28.22,6.03,41.25.55,1.96,2.9,4.23,3.5,8.18,1.38,9.01-5.2,15.09-2.52,19.09.81,1.21,2.64,2.49,7.23,2.45,1.48-9.38,5.22-27.2,15.49-44.48l-6.3-11.55.3-25.69c-4.12-1.73-7.01-5.8-7.01-10.54,0-6.31,5.12-11.43,11.43-11.43s11.43,5.12,11.43,11.43c0,4.91-3.09,9.09-7.43,10.71l-.28,23.31,3.14,5.77c2.59-3.53,5.49-6.97,8.74-10.25,8.14-8.19,20.95-21.08,32.73-23.86,7.12-1.68,14.04-4.89,19.86-9.32,1.31-1,2.39-1.22,1.93-3.3-5.3-1.8-9.9-3.87-15.71-3.54-5.59.32-18.15,7.21-20.5,6.56-7.84-2.16-12.02-18.23-24.49-22.29-25.04-8.15-28.49,11.35-44.34,23.32C27.19,17.13,10.71,12.9,0,27.45"/>
    <path class="cls-1" d="M187.28,17.23c-.89-2.04.58-2.03-2.32-1.67-6.87.86-28.19,9.95-35.66,13.21-21.76,9.5-44.55,20.85-58.51,40.66-1.39,1.97-2.74,4.03-4.06,6.15l16.32,29.97h22.68v-31.54c-4.08-1.76-6.93-5.82-6.93-10.54,0-6.34,5.14-11.48,11.48-11.48s11.48,5.14,11.48,11.48c0,4.94-3.13,9.14-7.5,10.76v31.31h17.92c1.69-4.23,5.82-7.22,10.65-7.22,6.34,0,11.48,5.14,11.48,11.48s-5.14,11.48-11.48,11.48c-4.83,0-8.96-2.99-10.65-7.22h-54.08s-16.28-29.91-16.28-29.91c-7.84,14.89-13.61,32.13-15.06,48.16-4.12,3.8-6.99,5.77-6.98,9.88,0,1.42.36,2.88.97,4.27.22.69.58,1.34,1.11,1.91l3.61,3.9c.36.39.76.71,1.2.95l-.02.02c1.38.83,2.85,1.37,4.32,1.48,2.65.2,4.73-1.02,8.23-4.64,48.9,14.07,97.79-2.81,110.09-56.95,3.62-15.92,4.36-61.3-2-75.94Z"/>
  </g>
</svg>