<?xml version="1.0" encoding="UTF-8"?>
<svg id="Camada_2" data-name="Camada 2" xmlns="http://www.w3.org/2000/svg" xmlns:xlink="http://www.w3.org/1999/xlink" viewBox="0 0 635.27 115.07">
  <defs>
    <style>
      .cls-1 {
        fill: url(#Gradiente_sem_nome_5);
      }

      .cls-2 {
        fill: url(#Gradiente_sem_nome_5-9);
      }

      .cls-3 {
        fill: url(#Gradiente_sem_nome_5-5);
      }

      .cls-4 {
        fill: url(#Gradiente_sem_nome_5-7);
      }

      .cls-5 {
        fill: url(#Gradiente_sem_nome_5-10);
      }

      .cls-6 {
        fill: url(#Gradiente_sem_nome_5-6);
      }

      .cls-7 {
        fill: url(#Gradiente_sem_nome_5-11);
      }

      .cls-8 {
        fill: url(#Gradiente_sem_nome_5-8);
      }

      .cls-9 {
        fill: url(#Gradiente_sem_nome_5-4);
      }

      .cls-10 {
        fill: url(#Gradiente_sem_nome_5-3);
      }

      .cls-11 {
        fill: url(#Gradiente_sem_nome_5-2);
      }
    </style>
    <linearGradient id="Gradiente_sem_nome_5" data-name="Gradiente sem nome 5" x1="337.61" y1="156.83" x2="374.94" y2="-17.4" gradientUnits="userSpaceOnUse">
      <stop offset="0" stop-color="#67b66a"/>
      <stop offset="1" stop-color="#004d40"/>
    </linearGradient>
    <linearGradient id="Gradiente_sem_nome_5-2" data-name="Gradiente sem nome 5" x1="135.13" y1="113.44" x2="172.46" y2="-60.78" xlink:href="#Gradiente_sem_nome_5"/>
    <linearGradient id="Gradiente_sem_nome_5-3" data-name="Gradiente sem nome 5" x1="37.37" y1="92.49" x2="74.7" y2="-81.73" xlink:href="#Gradiente_sem_nome_5"/>
    <linearGradient id="Gradiente_sem_nome_5-4" data-name="Gradiente sem nome 5" x1="561.42" y1="204.79" x2="598.75" y2="30.56" xlink:href="#Gradiente_sem_nome_5"/>
    <linearGradient id="Gradiente_sem_nome_5-5" data-name="Gradiente sem nome 5" x1="468.16" y1="184.8" x2="505.49" y2="10.58" xlink:href="#Gradiente_sem_nome_5"/>
    <linearGradient id="Gradiente_sem_nome_5-6" data-name="Gradiente sem nome 5" x1="207.76" y1="129" x2="245.09" y2="-45.22" xlink:href="#Gradiente_sem_nome_5"/>
    <linearGradient id="Gradiente_sem_nome_5-7" data-name="Gradiente sem nome 5" x1="260.58" y1="140.32" x2="297.91" y2="-33.9" xlink:href="#Gradiente_sem_nome_5"/>
    <linearGradient id="Gradiente_sem_nome_5-8" data-name="Gradiente sem nome 5" x1="404.02" y1="171.06" x2="441.36" y2="-3.16" xlink:href="#Gradiente_sem_nome_5"/>
    <linearGradient id="Gradiente_sem_nome_5-9" data-name="Gradiente sem nome 5" x1="402.39" y1="170.71" x2="439.72" y2="-3.51" xlink:href="#Gradiente_sem_nome_5"/>
    <linearGradient id="Gradiente_sem_nome_5-10" data-name="Gradiente sem nome 5" x1="395.86" y1="169.31" x2="433.19" y2="-4.91" xlink:href="#Gradiente_sem_nome_5"/>
    <linearGradient id="Gradiente_sem_nome_5-11" data-name="Gradiente sem nome 5" x1="396.78" y1="169.51" x2="434.12" y2="-4.71" xlink:href="#Gradiente_sem_nome_5"/>
  </defs>
  <g id="Camada_4" data-name="Camada 4">
    <g>
      <path class="cls-1" d="M380.29,2.7v35.48c-2.9-2.36-7.4-5.46-13.49-7.51-12.83-4.33-31.64-3.71-44.94,9.06-13.83,13.28-17.54,35.7-7.04,53.05,11.17,18.46,33.22,22.56,48.48,18.93,7.77-1.85,13.48-5.63,16.95-8.42.01,2.33.03,4.67.04,7,1.82.56,5.35,1.37,9.62.53,2.76-.54,4.9-1.58,6.3-2.41V1.97c-4.99-1.13-11.86-3.58-15.93.72ZM357.72,100.31c-38.94,5.24-44.18-53.94-8.19-58.93,6.28-.87,13.84,1.33,19.07,4.85,20.27,13.66,15.4,50.54-10.89,54.07Z"/>
      <path class="cls-11" d="M104.06,84.88c7.52,30.4,55.08,36.81,74.24,15.6,9.2-10.18,3.26-14.97-8.46-11.35-2.84.88-3.01,4.12-4.98,5.56-16.62,12.14-44.46,5.83-45.11-17.27,21.2-.24,42.41-.48,63.61-.72.09.03,1.57.48,2.7-.51.77-.67.89-1.57.91-1.8,3.99-67.84-100.27-59.68-82.91,10.48ZM163.85,65.76c-4.73.63-42.62-.01-44.24-1.52.78-20.44,22.71-29.46,39.64-20.07,6.67,3.7,17.31,19.92,4.61,21.6Z"/>
      <path class="cls-10" d="M19.43,44.5c-10.42-25.38,38.55-24.6,46.61-14.81,2.98,3.62,1.63,8.27,4.99,11.03,4.15,3.41,11.16,2.2,13.77-2.95C87.29,5.62,48.48,4.94,28.14,8.2-2.87,13.16-10.35,54.37,18.9,65.33c14.31,5.36,58.51-1.64,50.46,25.32-3.8,12.71-43.46,11.96-49.93,3.55-4.98-6.47,1.07-16.27-14.99-12.85-6.4,1.36-4.44,9.01-2.86,14.24,7.18,23.8,54.8,22.37,71.31,13.7,12.27-6.44,15.8-17.82,13.72-32.43-4.63-32.47-60.6-16.34-67.17-32.36Z"/>
      <path class="cls-9" d="M567.53,44.5c-10.42-25.38,38.55-24.6,46.61-14.81,2.98,3.62,1.63,8.27,4.99,11.03,4.15,3.41,11.16,2.2,13.77-2.95,2.49-32.15-36.33-32.83-56.66-29.58-31.01,4.97-38.49,46.18-9.24,57.14,14.31,5.36,58.51-1.64,50.46,25.32-3.8,12.71-43.46,11.96-49.93,3.55-4.98-6.47,1.07-16.27-14.99-12.85-6.4,1.36-4.44,9.01-2.86,14.24,7.18,23.8,54.8,22.37,71.31,13.7,12.27-6.44,15.8-17.82,13.72-32.43-4.63-32.47-60.6-16.34-67.17-32.36Z"/>
      <path class="cls-3" d="M516.25,61.16c.02,2.96.03,7.38,0,12.77-.04,6.04-.06,9.08-.21,9.76-2.65,11.62-26.33,21.55-37.83,13.7-3.65-2.5-5.79-6.59-6.04-7.08-1.63-3.2-1.96-6.08-2.13-13.38-.1-4.39-.14-9.92.06-16.35-.07-10.3-.15-20.59-.22-30.89-5.03.38-10.06.77-15.09,1.15-.05,7.98-.02,14.49.01,19.08.06,8.06.16,11.08.08,17.91-.05,4.47-.13,5.5-.08,8.5.05,2.93.35,11.3.9,14.6,1.44,8.58,9.89,14.84,11.19,15.8,13.06,9.67,29.53,5.07,34.24,3.75,6.9-1.93,12.03-5.04,15.21-7.31-.05,2.25-.11,4.51-.16,6.76,1.51.56,4.8,1.56,8.85.8,2.66-.49,4.65-1.55,5.87-2.33V29.49c-4.88.28-9.76.56-14.64.84,0,10.28,0,20.55,0,30.83Z"/>
      <path class="cls-6" d="M228.45,99c-3.63.03-6.48.14-8.45-1.84-1.43-1.44-1.8-3.37-1.9-4.67V2.7c-3.11-3.42-11.37-3.42-14.48,0v94.13c-.1.9-.46,5.08,2.47,8.93,3.1,4.08,7.57,4.72,8.39,4.83h28.24c1.3-4.06,2.08-7.47-.22-11.38-6.14-.23-10.88-.24-14.04-.21Z"/>
      <path class="cls-4" d="M283.69,99c-3.63.03-6.48.14-8.45-1.84-1.43-1.44-1.8-3.37-1.9-4.67V2.7c-3.11-3.42-11.37-3.42-14.48,0v94.13c-.1.9-.46,5.08,2.47,8.93,3.1,4.08,7.57,4.72,8.39,4.83h28.24c1.3-4.06,2.08-7.47-.22-11.38-6.14-.23-10.88-.24-14.04-.21Z"/>
      <path class="cls-8" d="M417.94,29.49v78.92c1.84,2.74,5,2.26,7.96,2.26,1.86,0,3.73.09,5.57-.32l2.4-1.94V31.66c-3.82-4.12-10.75-1.52-15.93-2.17Z"/>
      <path class="cls-2" d="M436.6,15.02c0-.47-.38-.85-.85-.85s-.85.38-.85.85.38.85.85.85.85-.38.85-.85Z"/>
      <path class="cls-5" d="M431.36,7.61c0-.47-.38-.85-.85-.85s-.85.38-.85.85.38.85.85.85.85-.38.85-.85Z"/>
      <path class="cls-7" d="M439.94,12.39c.58-2.54.69-9.76-.32-12.09-.14-.32.09-.32-.37-.27-1.09.14-4.49,1.59-5.68,2.1-3.46,1.51-7.09,3.32-9.32,6.47-1.94,2.76-3.51,6.56-3.83,10.02-.66.61-1.11.92-1.11,1.57,0,.25.07.51.19.75l6.59-6.59h3.73v-5.02c-.65-.28-1.1-.93-1.1-1.68,0-1.01.82-1.83,1.83-1.83s1.83.82,1.83,1.83c0,.79-.5,1.46-1.2,1.71v4.99h2.85c.27-.67.93-1.15,1.7-1.15,1.01,0,1.83.82,1.83,1.83s-.82,1.83-1.83,1.83c-.77,0-1.43-.48-1.7-1.15h-7.38l-6.24,6.24c.22.13.45.22.69.24.42.03.75-.16,1.31-.74,7.79,2.24,15.57-.45,17.53-9.07Z"/>
    </g>
  </g>
</svg>