<?xml version="1.0" encoding="UTF-8"?>
<svg id="Camada_2" data-name="Camada 2" xmlns="http://www.w3.org/2000/svg" viewBox="0 0 192.04 154.85">
  <defs>
    <style>
      .cls-1 {
        fill: #0c3656;
      }
    </style>
  </defs>
  <g id="Camada_3" data-name="Camada 3">
    <circle class="cls-1" cx="45.04" cy="27.76" r="5.09"/>
  </g>
  <g id="Camada_5" data-name="Camada 5">
    <circle class="cls-1" cx="42.84" cy="35.66" r="5.09"/>
    <g>
      <circle class="cls-1" cx="162.94" cy="109.7" r="5.36" transform="translate(-20.11 38.45) rotate(-12.68)"/>
      <path class="cls-1" d="M130.03,57.78c-2.96,0-5.36,2.4-5.36,5.36s2.4,5.36,5.36,5.36,5.36-2.4,5.36-5.36-2.4-5.36-5.36-5.36Z"/>
      <path class="cls-1" d="M75.31,22.84c-2.96,0-5.36,2.4-5.36,5.36s2.4,5.36,5.36,5.36,5.36-2.4,5.36-5.36-2.4-5.36-5.36-5.36Z"/>
    </g>
    <path class="cls-1" d="M0,27.45c7.5,6.35,19.25,24.78,30.33,21.23,2.97-.95,5.14-5.37,7.52-5.36l9.68,6.11c1.69,13.5,2.41,28.22,6.03,41.25.55,1.96,2.9,4.23,3.5,8.18,1.38,9.01-5.2,15.09-2.52,19.09.81,1.21,2.64,2.49,7.23,2.45,1.48-9.38,5.22-27.2,15.49-44.48l-6.3-11.55.3-25.69c-4.12-1.73-7.01-5.8-7.01-10.54,0-6.31,5.12-11.43,11.43-11.43s11.43,5.12,11.43,11.43c0,4.91-3.09,9.09-7.43,10.71l-.28,23.31,3.14,5.77c2.59-3.53,5.49-6.97,8.74-10.25,8.14-8.19,20.95-21.08,32.73-23.86,7.12-1.68,14.04-4.89,19.86-9.32,1.31-1,2.39-1.22,1.93-3.3-5.3-1.8-9.9-3.87-15.71-3.54-5.59.32-18.15,7.21-20.5,6.56-7.84-2.16-12.02-18.23-24.49-22.29-25.04-8.15-28.49,11.35-44.34,23.32C27.19,17.13,10.71,12.9,0,27.45"/>
    <path class="cls-1" d="M187.28,17.23c-.89-2.04.58-2.03-2.32-1.67-6.87.86-28.19,9.95-35.66,13.21-21.76,9.5-44.55,20.85-58.51,40.66-1.39,1.97-2.74,4.03-4.06,6.15l16.32,29.97h22.68v-31.54c-4.08-1.76-6.93-5.82-6.93-10.54,0-6.34,5.14-11.48,11.48-11.48s11.48,5.14,11.48,11.48c0,4.94-3.13,9.14-7.5,10.76v31.31h17.92c1.69-4.23,5.82-7.22,10.65-7.22,6.34,0,11.48,5.14,11.48,11.48s-5.14,11.48-11.48,11.48c-4.83,0-8.96-2.99-10.65-7.22h-54.08s-16.28-29.91-16.28-29.91c-7.84,14.89-13.61,32.13-15.06,48.16-4.12,3.8-6.99,5.77-6.98,9.88,0,1.42.36,2.88.97,4.27.22.69.58,1.34,1.11,1.91l3.61,3.9c.36.39.76.71,1.2.95l-.02.02c1.38.83,2.85,1.37,4.32,1.48,2.65.2,4.73-1.02,8.23-4.64,48.9,14.07,97.79-2.81,110.09-56.95,3.62-15.92,4.36-61.3-2-75.94Z"/>
  </g>
</svg>